<svg xmlns="http://www.w3.org/2000/svg" width="403.498" height="322.252" viewBox="0 0 403.498 322.252">
  <g id="Group_55" data-name="Group 55" transform="translate(-24493.795 -1711.748)">
    <circle id="Ellipse_17" data-name="Ellipse 17" cx="141" cy="141" r="141" transform="translate(24606 1752)" fill="#e34037"/>
    <path id="Path_96" data-name="Path 96" d="M22781.789-1134.612c15.3,20.341,33.063,20.757,64.742,0s68.539-42.859,134.461-42.859,100.836,22.69,133.617,42.859,47.461,20.341,64.672,0-41.836-58.105-40.164-95.922,95.227-54.857,4.922-99.885c-26.82-13.374-48.039,66.721-128.484,50.3s8.719-37.643,0-71.511-150.648-41.806-199.57-4.371,45.117,70.116,36.57,125.462S22766.484-1154.952,22781.789-1134.612Z" transform="translate(1714 3092.494)" fill="#121724"/>
    <circle id="Ellipse_18" data-name="Ellipse 18" cx="3" cy="3" r="3" transform="translate(24726 1866)" fill="#fff"/>
    <circle id="Ellipse_19" data-name="Ellipse 19" cx="3" cy="3" r="3" transform="translate(24765 1866)" fill="#fff"/>
    <path id="Path_97" data-name="Path 97" d="M23280-1333.186s-20.637,29.073,17.209,46.652" transform="matrix(-0.588, -0.809, 0.809, -0.588, 39363.328, 19851.221)" fill="none" stroke="#fff" stroke-linecap="round" stroke-width="8"/>
  </g>
</svg>
